REM DIRINDEX 1\2,1\3,1\4
REM DIRNAME cjc038,folder01,folder02,folder03
TITLE ""
FILE "DISC2Track33.mp3" MP3
  TRACK 01 AUDIO
    TITLE "0:"
    INDEX 01 00:00:00
  TRACK 02 AUDIO
    TITLE "4:cjc038_1874"
    INDEX 01 00:00:11
  TRACK 03 AUDIO
    TITLE "0:"
    INDEX 01 00:02:67
  TRACK 04 AUDIO
    TITLE "2:cjc038_1875"
    INDEX 01 00:04:05
  TRACK 05 AUDIO
    TITLE "0:"
    INDEX 01 00:05:67
  TRACK 06 AUDIO
    TITLE "3:cjc038_1876"
    INDEX 01 00:06:00
  TRACK 07 AUDIO
    TITLE "0:"
    INDEX 01 00:07:54
  TRACK 08 AUDIO
    TITLE "2:cjc038_1877"
    INDEX 01 00:08:32
  TRACK 09 AUDIO
    TITLE "0:"
    INDEX 01 00:11:54
  TRACK 10 AUDIO
    TITLE "2:cjc038_1878"
    INDEX 01 00:11:58
  TRACK 11 AUDIO
    TITLE "0:"
    INDEX 01 00:14:43
  TRACK 12 AUDIO
    TITLE "3:cjc038_1879"
    INDEX 01 00:14:51
  TRACK 13 AUDIO
    TITLE "0:"
    INDEX 01 00:17:69
  TRACK 14 AUDIO
    TITLE "3:cjc038_1880"
    INDEX 01 00:17:72
  TRACK 15 AUDIO
    TITLE "0:"
    INDEX 01 00:20:45
  TRACK 16 AUDIO
    TITLE "2:cjc038_1881"
    INDEX 01 00:21:29
  TRACK 17 AUDIO
    TITLE "0:"
    INDEX 01 00:23:36
  TRACK 18 AUDIO
    TITLE "3:cjc038_1882"
    INDEX 01 00:23:40
  TRACK 19 AUDIO
    TITLE "0:"
    INDEX 01 00:25:41
  TRACK 20 AUDIO
    TITLE "2:cjc038_1883"
    INDEX 01 00:26:17
  TRACK 21 AUDIO
    TITLE "0:"
    INDEX 01 00:29:46
  TRACK 22 AUDIO
    TITLE "3:cjc038_1884"
    INDEX 01 00:29:56
  TRACK 23 AUDIO
    TITLE "0:"
    INDEX 01 00:32:72
  TRACK 24 AUDIO
    TITLE "2:cjc038_1885"
    INDEX 01 00:33:58
  TRACK 25 AUDIO
    TITLE "0:"
    INDEX 01 00:36:40
  TRACK 26 AUDIO
    TITLE "2:cjc038_1886"
    INDEX 01 00:36:60
  TRACK 27 AUDIO
    TITLE "0:"
    INDEX 01 00:39:03
  TRACK 28 AUDIO
    TITLE "3:cjc038_1887"
    INDEX 01 00:39:11
  TRACK 29 AUDIO
    TITLE "0:"
    INDEX 01 00:41:59
  TRACK 30 AUDIO
    TITLE "3:cjc038_1888"
    INDEX 01 00:42:14
  TRACK 31 AUDIO
    TITLE "0:"
    INDEX 01 00:44:16
  TRACK 32 AUDIO
    TITLE "2:cjc038_1889"
    INDEX 01 00:45:71
  TRACK 33 AUDIO
    TITLE "0:"
    INDEX 01 00:48:38
  TRACK 34 AUDIO
    TITLE "3:cjc038_1890"
    INDEX 01 00:48:49
  TRACK 35 AUDIO
    TITLE "0:"
    INDEX 01 00:51:07
  TRACK 36 AUDIO
    TITLE "2:cjc038_1891"
    INDEX 01 00:51:58
  TRACK 37 AUDIO
    TITLE "0:"
    INDEX 01 00:54:03
  TRACK 38 AUDIO
    TITLE "3:cjc038_1892"
    INDEX 01 00:54:11
  TRACK 39 AUDIO
    TITLE "0:"
    INDEX 01 00:56:27
  TRACK 40 AUDIO
    TITLE "2:cjc038_1893"
    INDEX 01 00:57:01
  TRACK 41 AUDIO
    TITLE "0:"
    INDEX 01 00:59:22
  TRACK 42 AUDIO
    TITLE "3:cjc038_1894"
    INDEX 01 00:59:28
  TRACK 43 AUDIO
    TITLE "0:"
    INDEX 01 01:01:33
  TRACK 44 AUDIO
    TITLE "2:cjc038_1895"
    INDEX 01 01:02:16
  TRACK 45 AUDIO
    TITLE "0:"
    INDEX 01 01:05:03
  TRACK 46 AUDIO
    TITLE "3:cjc038_1896"
    INDEX 01 01:05:15
  TRACK 47 AUDIO
    TITLE "0:"
    INDEX 01 01:07:68
  TRACK 48 AUDIO
    TITLE "2:cjc038_1897"
    INDEX 01 01:08:38
  TRACK 49 AUDIO
    TITLE "0:"
    INDEX 01 01:10:49
  TRACK 50 AUDIO
    TITLE "3:cjc038_1898"
    INDEX 01 01:10:55
  TRACK 51 AUDIO
    TITLE "0:"
    INDEX 01 01:12:58
  TRACK 52 AUDIO
    TITLE "2:cjc038_1899"
    INDEX 01 01:13:38
  TRACK 53 AUDIO
    TITLE "0:"
    INDEX 01 01:15:62
  TRACK 54 AUDIO
    TITLE "3:cjc038_1900"
    INDEX 01 01:15:68
  TRACK 55 AUDIO
    TITLE "0:"
    INDEX 01 01:18:09
  TRACK 56 AUDIO
    TITLE "2:cjc038_1901"
    INDEX 01 01:18:62
  TRACK 57 AUDIO
    TITLE "0:"
    INDEX 01 01:23:07
  TRACK 58 AUDIO
    TITLE "3:cjc038_1902"
    INDEX 01 01:23:22
  TRACK 59 AUDIO
    TITLE "0:"
    INDEX 01 01:27:36
  TRACK 60 AUDIO
    TITLE "2:cjc038_1903"
    INDEX 01 01:29:11
  TRACK 61 AUDIO
    TITLE "0:"
    INDEX 01 01:31:26
  TRACK 62 AUDIO
    TITLE "3:cjc038_1904"
    INDEX 01 01:31:32
  TRACK 63 AUDIO
    TITLE "0:"
    INDEX 01 01:33:34
  TRACK 64 AUDIO
    TITLE "2:cjc038_1905"
    INDEX 01 01:34:20
  TRACK 65 AUDIO
    TITLE "0:"
    INDEX 01 01:37:09
  TRACK 66 AUDIO
    TITLE "3:cjc038_1906"
    INDEX 01 01:37:15
  TRACK 67 AUDIO
    TITLE "0:"
    INDEX 01 01:39:70
  TRACK 68 AUDIO
    TITLE "2:cjc038_1907"
    INDEX 01 01:40:50
  TRACK 69 AUDIO
    TITLE "0:"
    INDEX 01 01:43:43
  TRACK 70 AUDIO
    TITLE "3:cjc038_1908"
    INDEX 01 01:43:54
  TRACK 71 AUDIO
    TITLE "0:"
    INDEX 01 01:46:37
  TRACK 72 AUDIO
    TITLE "2:cjc038_1909"
    INDEX 01 01:48:14
  TRACK 73 AUDIO
    TITLE "0:"
    INDEX 01 01:50:43
  TRACK 74 AUDIO
    TITLE "3:cjc038_1910"
    INDEX 01 01:50:53
  TRACK 75 AUDIO
    TITLE "0:"
    INDEX 01 01:52:67
  TRACK 76 AUDIO
    TITLE "2:cjc038_1911"
    INDEX 01 01:53:47
  TRACK 77 AUDIO
    TITLE "0:"
    INDEX 01 01:56:65
  TRACK 78 AUDIO
    TITLE "3:cjc038_1912"
    INDEX 01 01:56:73
  TRACK 79 AUDIO
    TITLE "0:"
    INDEX 01 02:00:02
  TRACK 80 AUDIO
    TITLE "2:cjc038_1913"
    INDEX 01 02:00:63
  TRACK 81 AUDIO
    TITLE "0:"
    INDEX 01 02:03:69
  TRACK 82 AUDIO
    TITLE "3:cjc038_1914"
    INDEX 01 02:04:04
  TRACK 83 AUDIO
    TITLE "0:"
    INDEX 01 02:06:71
  TRACK 84 AUDIO
    TITLE "2:cjc038_1915"
    INDEX 01 02:08:45
  TRACK 85 AUDIO
    TITLE "0:"
    INDEX 01 02:12:52
  TRACK 86 AUDIO
    TITLE "3:cjc038_1916"
    INDEX 01 02:12:62
  TRACK 87 AUDIO
    TITLE "0:"
    INDEX 01 02:16:62
  TRACK 88 AUDIO
    TITLE "2:cjc038_1917"
    INDEX 01 02:17:36
  TRACK 89 AUDIO
    TITLE "0:"
    INDEX 01 02:19:50
  TRACK 90 AUDIO
    TITLE "3:cjc038_1918"
    INDEX 01 02:19:60
  TRACK 91 AUDIO
    TITLE "0:"
    INDEX 01 02:21:67
  TRACK 92 AUDIO
    TITLE "2:cjc038_1919"
    INDEX 01 02:23:46
  TRACK 93 AUDIO
    TITLE "0:"
    INDEX 01 02:27:24
  TRACK 94 AUDIO
    TITLE "3:cjc038_1920"
    INDEX 01 02:27:34
  TRACK 95 AUDIO
    TITLE "0:"
    INDEX 01 02:30:70
  TRACK 96 AUDIO
    TITLE "2:cjc038_1921"
    INDEX 01 02:31:57
  TRACK 97 AUDIO
    TITLE "0:"
    INDEX 01 02:36:02
  TRACK 98 AUDIO
    TITLE "3:cjc038_1922"
    INDEX 01 02:36:10
  TRACK 99 AUDIO
    TITLE "0:"
    INDEX 01 02:40:27
  TRACK 100 AUDIO
    TITLE "2:cjc038_1923"
    INDEX 01 02:41:03
  TRACK 101 AUDIO
    TITLE "0:"
    INDEX 01 02:46:28
  TRACK 102 AUDIO
    TITLE "3:cjc038_1924"
    INDEX 01 02:46:35
  TRACK 103 AUDIO
    TITLE "0:"
    INDEX 01 02:51:40
